# xmcd
#
# Track frame offsets:
#	150
#	11532
#	29960
#	42927
#	68850
#	83030
#	99425
#	108815
#	126295
#	138890
#	158092
#	177535
#
# Disc length: 2568 seconds
#
# Revision: 1
# Processed by: cddbd v1.5.1PL0 Copyright (c) Steve Scherf et al.
# Submitted via: audiograbber 1.83.01
#
DISCID=9b0a060c
DTITLE=Dyce - Roll The Dyce
DYEAR=1997
DGENRE=
TTITLE0=Red Hot and Singing The Blues
TTITLE1=Outside The Door
TTITLE2=In My Lonely Room
TTITLE3=Why Keep Pretending
TTITLE4=Funky Night Jam
TTITLE5=Baby I Love You
TTITLE6=I'm Gonna Love You
TTITLE7=What Would I Do Without You
TTITLE8=Your Love's All I Need
TTITLE9=I'll Be Damned, One Monkey Don't Stop No Show
TTITLE10=How Did I Lose You
TTITLE11=Linda's Walk
EXTD=
EXTT0=
EXTT1=
EXTT2=
EXTT3=
EXTT4=
EXTT5=
EXTT6=
EXTT7=
EXTT8=
EXTT9=
EXTT10=
EXTT11=
PLAYORDER=
